<mxfile host="Electron" agent="Mozilla/5.0 (Macintosh; Intel Mac OS X 10_15_7) AppleWebKit/537.36 (KHTML, like Gecko) draw.io/24.7.17 Chrome/128.0.6613.36 Electron/32.0.1 Safari/537.36" version="24.7.17" pages="3">
  <diagram name="vpclattice-vpcassociation" id="eNR8j11C6GteSxVj7u3U">
    <mxGraphModel dx="1434" dy="854" grid="1" gridSize="10" guides="1" tooltips="1" connect="1" arrows="1" fold="1" page="1" pageScale="1" pageWidth="1169" pageHeight="827" math="0" shadow="0">
      <root>
        <mxCell id="0" />
        <mxCell id="1" parent="0" />
        <mxCell id="mFAFaN9WwB_VmJPNvLAM-1" value="&lt;font color=&quot;#330000&quot;&gt;Consumer&amp;nbsp;&lt;/font&gt;&lt;div&gt;&lt;font color=&quot;#330000&quot;&gt;VPC&lt;/font&gt;&lt;/div&gt;" style="points=[[0,0],[0.25,0],[0.5,0],[0.75,0],[1,0],[1,0.25],[1,0.5],[1,0.75],[1,1],[0.75,1],[0.5,1],[0.25,1],[0,1],[0,0.75],[0,0.5],[0,0.25]];outlineConnect=0;gradientColor=none;html=1;whiteSpace=wrap;fontSize=12;fontStyle=0;container=1;pointerEvents=0;collapsible=0;recursiveResize=0;shape=mxgraph.aws4.group;grIcon=mxgraph.aws4.group_vpc2;strokeColor=#8C4FFF;fillColor=none;verticalAlign=top;align=left;spacingLeft=30;fontColor=#AAB7B8;dashed=0;" vertex="1" parent="1">
          <mxGeometry x="170" y="290" width="180" height="160" as="geometry" />
        </mxCell>
        <mxCell id="mFAFaN9WwB_VmJPNvLAM-2" value="Resolver" style="sketch=0;outlineConnect=0;fontColor=#232F3E;gradientColor=none;fillColor=#8C4FFF;strokeColor=none;dashed=0;verticalLabelPosition=bottom;verticalAlign=top;align=center;html=1;fontSize=12;fontStyle=0;aspect=fixed;pointerEvents=1;shape=mxgraph.aws4.route_53_resolver;" vertex="1" parent="mFAFaN9WwB_VmJPNvLAM-1">
          <mxGeometry x="130" y="10" width="40" height="40" as="geometry" />
        </mxCell>
        <mxCell id="mFAFaN9WwB_VmJPNvLAM-23" style="edgeStyle=orthogonalEdgeStyle;rounded=0;orthogonalLoop=1;jettySize=auto;html=1;exitX=0.5;exitY=0;exitDx=0;exitDy=0;exitPerimeter=0;fillColor=#f8cecc;strokeColor=#b85450;strokeWidth=2;" edge="1" parent="mFAFaN9WwB_VmJPNvLAM-1" source="mFAFaN9WwB_VmJPNvLAM-3" target="mFAFaN9WwB_VmJPNvLAM-2">
          <mxGeometry relative="1" as="geometry" />
        </mxCell>
        <mxCell id="mFAFaN9WwB_VmJPNvLAM-3" value="Consumer&lt;div&gt;application&lt;/div&gt;" style="sketch=0;points=[[0,0,0],[0.25,0,0],[0.5,0,0],[0.75,0,0],[1,0,0],[0,1,0],[0.25,1,0],[0.5,1,0],[0.75,1,0],[1,1,0],[0,0.25,0],[0,0.5,0],[0,0.75,0],[1,0.25,0],[1,0.5,0],[1,0.75,0]];outlineConnect=0;fontColor=#232F3E;fillColor=#ED7100;strokeColor=#ffffff;dashed=0;verticalLabelPosition=bottom;verticalAlign=top;align=center;html=1;fontSize=12;fontStyle=0;aspect=fixed;shape=mxgraph.aws4.resourceIcon;resIcon=mxgraph.aws4.ec2;" vertex="1" parent="mFAFaN9WwB_VmJPNvLAM-1">
          <mxGeometry x="30" y="50" width="60" height="60" as="geometry" />
        </mxCell>
        <mxCell id="mFAFaN9WwB_VmJPNvLAM-4" value="VPC Lattice&lt;div&gt;service network&lt;/div&gt;" style="sketch=0;points=[[0,0,0],[0.25,0,0],[0.5,0,0],[0.75,0,0],[1,0,0],[0,1,0],[0.25,1,0],[0.5,1,0],[0.75,1,0],[1,1,0],[0,0.25,0],[0,0.5,0],[0,0.75,0],[1,0.25,0],[1,0.5,0],[1,0.75,0]];outlineConnect=0;fontColor=#232F3E;fillColor=#8C4FFF;strokeColor=#ffffff;dashed=0;verticalLabelPosition=bottom;verticalAlign=top;align=center;html=1;fontSize=12;fontStyle=0;aspect=fixed;shape=mxgraph.aws4.resourceIcon;resIcon=mxgraph.aws4.vpc_lattice;" vertex="1" parent="1">
          <mxGeometry x="450" y="331" width="78" height="78" as="geometry" />
        </mxCell>
        <mxCell id="mFAFaN9WwB_VmJPNvLAM-5" style="edgeStyle=orthogonalEdgeStyle;rounded=0;orthogonalLoop=1;jettySize=auto;html=1;exitX=1;exitY=0.5;exitDx=0;exitDy=0;entryX=0;entryY=0.5;entryDx=0;entryDy=0;entryPerimeter=0;endArrow=none;endFill=0;strokeWidth=2;fillColor=#e1d5e7;strokeColor=#9673a6;" edge="1" parent="1" source="mFAFaN9WwB_VmJPNvLAM-1" target="mFAFaN9WwB_VmJPNvLAM-4">
          <mxGeometry relative="1" as="geometry" />
        </mxCell>
        <mxCell id="mFAFaN9WwB_VmJPNvLAM-8" value="VPC&lt;div&gt;association&lt;/div&gt;" style="edgeLabel;html=1;align=center;verticalAlign=middle;resizable=0;points=[];" vertex="1" connectable="0" parent="mFAFaN9WwB_VmJPNvLAM-5">
          <mxGeometry x="-0.16" y="1" relative="1" as="geometry">
            <mxPoint x="8" y="1" as="offset" />
          </mxGeometry>
        </mxCell>
        <mxCell id="mFAFaN9WwB_VmJPNvLAM-16" style="edgeStyle=orthogonalEdgeStyle;rounded=0;orthogonalLoop=1;jettySize=auto;html=1;exitX=1;exitY=0.25;exitDx=0;exitDy=0;exitPerimeter=0;entryX=0;entryY=0.5;entryDx=0;entryDy=0;endArrow=none;endFill=0;" edge="1" parent="1" source="mFAFaN9WwB_VmJPNvLAM-6" target="mFAFaN9WwB_VmJPNvLAM-13">
          <mxGeometry relative="1" as="geometry" />
        </mxCell>
        <mxCell id="mFAFaN9WwB_VmJPNvLAM-17" value="/asg" style="edgeLabel;html=1;align=center;verticalAlign=middle;resizable=0;points=[];" vertex="1" connectable="0" parent="mFAFaN9WwB_VmJPNvLAM-16">
          <mxGeometry x="0.0271" y="1" relative="1" as="geometry">
            <mxPoint as="offset" />
          </mxGeometry>
        </mxCell>
        <mxCell id="mFAFaN9WwB_VmJPNvLAM-6" value="VPC lattice&lt;div&gt;service&lt;/div&gt;" style="sketch=0;points=[[0,0,0],[0.25,0,0],[0.5,0,0],[0.75,0,0],[1,0,0],[0,1,0],[0.25,1,0],[0.5,1,0],[0.75,1,0],[1,1,0],[0,0.25,0],[0,0.5,0],[0,0.75,0],[1,0.25,0],[1,0.5,0],[1,0.75,0]];outlineConnect=0;fontColor=#232F3E;fillColor=#8C4FFF;strokeColor=#ffffff;dashed=0;verticalLabelPosition=bottom;verticalAlign=top;align=center;html=1;fontSize=12;fontStyle=0;aspect=fixed;shape=mxgraph.aws4.resourceIcon;resIcon=mxgraph.aws4.vpc_lattice;" vertex="1" parent="1">
          <mxGeometry x="630" y="345.5" width="49" height="49" as="geometry" />
        </mxCell>
        <mxCell id="mFAFaN9WwB_VmJPNvLAM-7" style="edgeStyle=orthogonalEdgeStyle;rounded=0;orthogonalLoop=1;jettySize=auto;html=1;entryX=0;entryY=0.5;entryDx=0;entryDy=0;entryPerimeter=0;strokeWidth=2;fillColor=#e1d5e7;strokeColor=#9673a6;endArrow=none;endFill=0;" edge="1" parent="1" source="mFAFaN9WwB_VmJPNvLAM-4" target="mFAFaN9WwB_VmJPNvLAM-6">
          <mxGeometry relative="1" as="geometry" />
        </mxCell>
        <mxCell id="mFAFaN9WwB_VmJPNvLAM-9" value="service&lt;div&gt;association&lt;/div&gt;" style="edgeLabel;html=1;align=center;verticalAlign=middle;resizable=0;points=[];" vertex="1" connectable="0" parent="mFAFaN9WwB_VmJPNvLAM-7">
          <mxGeometry x="-0.1765" y="-1" relative="1" as="geometry">
            <mxPoint x="10" y="-1" as="offset" />
          </mxGeometry>
        </mxCell>
        <mxCell id="mFAFaN9WwB_VmJPNvLAM-10" value="&lt;font color=&quot;#330000&quot;&gt;Provider VPC&lt;/font&gt;" style="points=[[0,0],[0.25,0],[0.5,0],[0.75,0],[1,0],[1,0.25],[1,0.5],[1,0.75],[1,1],[0.75,1],[0.5,1],[0.25,1],[0,1],[0,0.75],[0,0.5],[0,0.25]];outlineConnect=0;gradientColor=none;html=1;whiteSpace=wrap;fontSize=12;fontStyle=0;container=1;pointerEvents=0;collapsible=0;recursiveResize=0;shape=mxgraph.aws4.group;grIcon=mxgraph.aws4.group_vpc2;strokeColor=#8C4FFF;fillColor=none;verticalAlign=top;align=left;spacingLeft=30;fontColor=#AAB7B8;dashed=0;" vertex="1" parent="1">
          <mxGeometry x="770" y="230" width="180" height="164.5" as="geometry" />
        </mxCell>
        <mxCell id="mFAFaN9WwB_VmJPNvLAM-13" value="Auto Scaling group" style="points=[[0,0],[0.25,0],[0.5,0],[0.75,0],[1,0],[1,0.25],[1,0.5],[1,0.75],[1,1],[0.75,1],[0.5,1],[0.25,1],[0,1],[0,0.75],[0,0.5],[0,0.25]];outlineConnect=0;gradientColor=none;html=1;whiteSpace=wrap;fontSize=12;fontStyle=0;container=1;pointerEvents=0;collapsible=0;recursiveResize=0;shape=mxgraph.aws4.groupCenter;grIcon=mxgraph.aws4.group_auto_scaling_group;grStroke=1;strokeColor=#D86613;fillColor=none;verticalAlign=top;align=center;fontColor=#D86613;dashed=1;spacingTop=25;" vertex="1" parent="mFAFaN9WwB_VmJPNvLAM-10">
          <mxGeometry x="25" y="34.5" width="130" height="115.5" as="geometry" />
        </mxCell>
        <mxCell id="mFAFaN9WwB_VmJPNvLAM-12" value="" style="sketch=0;points=[[0,0,0],[0.25,0,0],[0.5,0,0],[0.75,0,0],[1,0,0],[0,1,0],[0.25,1,0],[0.5,1,0],[0.75,1,0],[1,1,0],[0,0.25,0],[0,0.5,0],[0,0.75,0],[1,0.25,0],[1,0.5,0],[1,0.75,0]];outlineConnect=0;fontColor=#232F3E;fillColor=#ED7100;strokeColor=#ffffff;dashed=0;verticalLabelPosition=bottom;verticalAlign=top;align=center;html=1;fontSize=12;fontStyle=0;aspect=fixed;shape=mxgraph.aws4.resourceIcon;resIcon=mxgraph.aws4.ec2;" vertex="1" parent="mFAFaN9WwB_VmJPNvLAM-13">
          <mxGeometry x="45" y="65.5" width="40" height="40" as="geometry" />
        </mxCell>
        <mxCell id="mFAFaN9WwB_VmJPNvLAM-15" value="AWS Lambda&lt;div&gt;function&lt;/div&gt;" style="sketch=0;points=[[0,0,0],[0.25,0,0],[0.5,0,0],[0.75,0,0],[1,0,0],[0,1,0],[0.25,1,0],[0.5,1,0],[0.75,1,0],[1,1,0],[0,0.25,0],[0,0.5,0],[0,0.75,0],[1,0.25,0],[1,0.5,0],[1,0.75,0]];outlineConnect=0;fontColor=#232F3E;fillColor=#ED7100;strokeColor=#ffffff;dashed=0;verticalLabelPosition=bottom;verticalAlign=top;align=center;html=1;fontSize=12;fontStyle=0;aspect=fixed;shape=mxgraph.aws4.resourceIcon;resIcon=mxgraph.aws4.lambda;" vertex="1" parent="1">
          <mxGeometry x="835" y="440" width="50" height="50" as="geometry" />
        </mxCell>
        <mxCell id="mFAFaN9WwB_VmJPNvLAM-18" style="edgeStyle=orthogonalEdgeStyle;rounded=0;orthogonalLoop=1;jettySize=auto;html=1;exitX=1;exitY=0.75;exitDx=0;exitDy=0;exitPerimeter=0;entryX=0;entryY=0.5;entryDx=0;entryDy=0;entryPerimeter=0;endArrow=none;endFill=0;" edge="1" parent="1" source="mFAFaN9WwB_VmJPNvLAM-6" target="mFAFaN9WwB_VmJPNvLAM-15">
          <mxGeometry relative="1" as="geometry">
            <Array as="points">
              <mxPoint x="740" y="382" />
              <mxPoint x="740" y="465" />
            </Array>
          </mxGeometry>
        </mxCell>
        <mxCell id="mFAFaN9WwB_VmJPNvLAM-19" value="/lambda" style="edgeLabel;html=1;align=center;verticalAlign=middle;resizable=0;points=[];" vertex="1" connectable="0" parent="mFAFaN9WwB_VmJPNvLAM-18">
          <mxGeometry x="-0.0557" y="1" relative="1" as="geometry">
            <mxPoint as="offset" />
          </mxGeometry>
        </mxCell>
        <mxCell id="mFAFaN9WwB_VmJPNvLAM-20" style="edgeStyle=orthogonalEdgeStyle;rounded=0;orthogonalLoop=1;jettySize=auto;html=1;entryX=0;entryY=0.75;entryDx=0;entryDy=0;entryPerimeter=0;strokeWidth=2;fillColor=#dae8fc;strokeColor=#6c8ebf;" edge="1" parent="1" target="mFAFaN9WwB_VmJPNvLAM-4">
          <mxGeometry relative="1" as="geometry">
            <mxPoint x="260" y="390" as="sourcePoint" />
            <Array as="points">
              <mxPoint x="260" y="390" />
              <mxPoint x="355" y="390" />
            </Array>
          </mxGeometry>
        </mxCell>
        <mxCell id="mFAFaN9WwB_VmJPNvLAM-21" style="edgeStyle=orthogonalEdgeStyle;rounded=0;orthogonalLoop=1;jettySize=auto;html=1;exitX=1;exitY=0.75;exitDx=0;exitDy=0;exitPerimeter=0;entryX=0;entryY=0.888;entryDx=0;entryDy=0;entryPerimeter=0;strokeWidth=2;fillColor=#dae8fc;strokeColor=#6c8ebf;" edge="1" parent="1" source="mFAFaN9WwB_VmJPNvLAM-4" target="mFAFaN9WwB_VmJPNvLAM-6">
          <mxGeometry relative="1" as="geometry" />
        </mxCell>
        <mxCell id="mFAFaN9WwB_VmJPNvLAM-22" style="edgeStyle=orthogonalEdgeStyle;rounded=0;orthogonalLoop=1;jettySize=auto;html=1;entryX=0.5;entryY=0;entryDx=0;entryDy=0;entryPerimeter=0;fillColor=#dae8fc;strokeColor=#6c8ebf;strokeWidth=2;" edge="1" parent="1" source="mFAFaN9WwB_VmJPNvLAM-6" target="mFAFaN9WwB_VmJPNvLAM-15">
          <mxGeometry relative="1" as="geometry">
            <Array as="points">
              <mxPoint x="860" y="390" />
            </Array>
          </mxGeometry>
        </mxCell>
        <mxCell id="mFAFaN9WwB_VmJPNvLAM-24" style="edgeStyle=orthogonalEdgeStyle;rounded=0;orthogonalLoop=1;jettySize=auto;html=1;fillColor=#f8cecc;strokeColor=#b85450;strokeWidth=2;" edge="1" parent="1">
          <mxGeometry relative="1" as="geometry">
            <mxPoint x="210" y="504.5" as="sourcePoint" />
            <mxPoint x="290" y="504.5" as="targetPoint" />
          </mxGeometry>
        </mxCell>
        <mxCell id="mFAFaN9WwB_VmJPNvLAM-25" style="edgeStyle=orthogonalEdgeStyle;rounded=0;orthogonalLoop=1;jettySize=auto;html=1;fillColor=#dae8fc;strokeColor=#6c8ebf;strokeWidth=2;" edge="1" parent="1">
          <mxGeometry relative="1" as="geometry">
            <mxPoint x="210" y="534.5" as="sourcePoint" />
            <mxPoint x="290" y="534.5" as="targetPoint" />
            <Array as="points">
              <mxPoint x="250" y="534.5" />
              <mxPoint x="250" y="534.5" />
            </Array>
          </mxGeometry>
        </mxCell>
        <mxCell id="mFAFaN9WwB_VmJPNvLAM-26" value="DNS request" style="text;html=1;align=center;verticalAlign=middle;whiteSpace=wrap;rounded=0;" vertex="1" parent="1">
          <mxGeometry x="290" y="490" width="90" height="30" as="geometry" />
        </mxCell>
        <mxCell id="mFAFaN9WwB_VmJPNvLAM-27" value="HTTP/HTTPS request" style="text;html=1;align=center;verticalAlign=middle;whiteSpace=wrap;rounded=0;" vertex="1" parent="1">
          <mxGeometry x="290" y="520" width="140" height="30" as="geometry" />
        </mxCell>
      </root>
    </mxGraphModel>
  </diagram>
  <diagram id="3cdOpMuj7iIzjSBj4QUM" name="vpclattice-vpcendpoint-crossRegion">
    <mxGraphModel dx="1434" dy="854" grid="1" gridSize="10" guides="1" tooltips="1" connect="1" arrows="1" fold="1" page="1" pageScale="1" pageWidth="1169" pageHeight="827" math="0" shadow="0">
      <root>
        <mxCell id="0" />
        <mxCell id="1" parent="0" />
        <mxCell id="JMo-ZxGT1zMDHPCqKUFZ-5" style="edgeStyle=orthogonalEdgeStyle;rounded=0;orthogonalLoop=1;jettySize=auto;html=1;exitX=0.5;exitY=1;exitDx=0;exitDy=0;entryX=0.5;entryY=0;entryDx=0;entryDy=0;endArrow=none;endFill=0;strokeWidth=2;" edge="1" parent="1" source="EdqDIlXVFnxRbxeXJx3r-1" target="JMo-ZxGT1zMDHPCqKUFZ-1">
          <mxGeometry relative="1" as="geometry" />
        </mxCell>
        <mxCell id="JMo-ZxGT1zMDHPCqKUFZ-6" value="VPC peering&lt;div&gt;Transit Gateway peering&lt;/div&gt;&lt;div&gt;Cloud WAN&lt;/div&gt;" style="edgeLabel;html=1;align=center;verticalAlign=middle;resizable=0;points=[];" vertex="1" connectable="0" parent="JMo-ZxGT1zMDHPCqKUFZ-5">
          <mxGeometry x="-0.0889" y="-2" relative="1" as="geometry">
            <mxPoint as="offset" />
          </mxGeometry>
        </mxCell>
        <mxCell id="EdqDIlXVFnxRbxeXJx3r-1" value="&lt;font color=&quot;#330000&quot;&gt;Endpoint VPC&lt;/font&gt;" style="points=[[0,0],[0.25,0],[0.5,0],[0.75,0],[1,0],[1,0.25],[1,0.5],[1,0.75],[1,1],[0.75,1],[0.5,1],[0.25,1],[0,1],[0,0.75],[0,0.5],[0,0.25]];outlineConnect=0;gradientColor=none;html=1;whiteSpace=wrap;fontSize=12;fontStyle=0;container=1;pointerEvents=0;collapsible=0;recursiveResize=0;shape=mxgraph.aws4.group;grIcon=mxgraph.aws4.group_vpc2;strokeColor=#8C4FFF;fillColor=none;verticalAlign=top;align=left;spacingLeft=30;fontColor=#AAB7B8;dashed=0;" vertex="1" parent="1">
          <mxGeometry x="180" y="210" width="180" height="160" as="geometry" />
        </mxCell>
        <mxCell id="EdqDIlXVFnxRbxeXJx3r-26" value="endpoint&lt;div&gt;(service network)&lt;/div&gt;" style="sketch=0;outlineConnect=0;fontColor=#232F3E;gradientColor=none;fillColor=#8C4FFF;strokeColor=none;dashed=0;verticalLabelPosition=bottom;verticalAlign=top;align=center;html=1;fontSize=12;fontStyle=0;aspect=fixed;pointerEvents=1;shape=mxgraph.aws4.elastic_network_interface;" vertex="1" parent="EdqDIlXVFnxRbxeXJx3r-1">
          <mxGeometry x="65.5" y="55.5" width="49" height="49" as="geometry" />
        </mxCell>
        <mxCell id="EdqDIlXVFnxRbxeXJx3r-5" value="VPC Lattice&lt;div&gt;service network&lt;/div&gt;" style="sketch=0;points=[[0,0,0],[0.25,0,0],[0.5,0,0],[0.75,0,0],[1,0,0],[0,1,0],[0.25,1,0],[0.5,1,0],[0.75,1,0],[1,1,0],[0,0.25,0],[0,0.5,0],[0,0.75,0],[1,0.25,0],[1,0.5,0],[1,0.75,0]];outlineConnect=0;fontColor=#232F3E;fillColor=#8C4FFF;strokeColor=#ffffff;dashed=0;verticalLabelPosition=bottom;verticalAlign=top;align=center;html=1;fontSize=12;fontStyle=0;aspect=fixed;shape=mxgraph.aws4.resourceIcon;resIcon=mxgraph.aws4.vpc_lattice;" vertex="1" parent="1">
          <mxGeometry x="460" y="251" width="78" height="78" as="geometry" />
        </mxCell>
        <mxCell id="EdqDIlXVFnxRbxeXJx3r-6" style="edgeStyle=orthogonalEdgeStyle;rounded=0;orthogonalLoop=1;jettySize=auto;html=1;entryX=0;entryY=0.5;entryDx=0;entryDy=0;entryPerimeter=0;endArrow=none;endFill=0;strokeWidth=2;fillColor=#e1d5e7;strokeColor=#9673a6;" edge="1" parent="1" source="EdqDIlXVFnxRbxeXJx3r-26" target="EdqDIlXVFnxRbxeXJx3r-5">
          <mxGeometry relative="1" as="geometry" />
        </mxCell>
        <mxCell id="EdqDIlXVFnxRbxeXJx3r-8" style="edgeStyle=orthogonalEdgeStyle;rounded=0;orthogonalLoop=1;jettySize=auto;html=1;exitX=1;exitY=0.25;exitDx=0;exitDy=0;exitPerimeter=0;entryX=0;entryY=0.5;entryDx=0;entryDy=0;endArrow=none;endFill=0;" edge="1" parent="1" source="EdqDIlXVFnxRbxeXJx3r-10" target="EdqDIlXVFnxRbxeXJx3r-14">
          <mxGeometry relative="1" as="geometry" />
        </mxCell>
        <mxCell id="EdqDIlXVFnxRbxeXJx3r-9" value="/asg" style="edgeLabel;html=1;align=center;verticalAlign=middle;resizable=0;points=[];" vertex="1" connectable="0" parent="EdqDIlXVFnxRbxeXJx3r-8">
          <mxGeometry x="0.0271" y="1" relative="1" as="geometry">
            <mxPoint as="offset" />
          </mxGeometry>
        </mxCell>
        <mxCell id="EdqDIlXVFnxRbxeXJx3r-10" value="VPC lattice&lt;div&gt;service&lt;/div&gt;" style="sketch=0;points=[[0,0,0],[0.25,0,0],[0.5,0,0],[0.75,0,0],[1,0,0],[0,1,0],[0.25,1,0],[0.5,1,0],[0.75,1,0],[1,1,0],[0,0.25,0],[0,0.5,0],[0,0.75,0],[1,0.25,0],[1,0.5,0],[1,0.75,0]];outlineConnect=0;fontColor=#232F3E;fillColor=#8C4FFF;strokeColor=#ffffff;dashed=0;verticalLabelPosition=bottom;verticalAlign=top;align=center;html=1;fontSize=12;fontStyle=0;aspect=fixed;shape=mxgraph.aws4.resourceIcon;resIcon=mxgraph.aws4.vpc_lattice;" vertex="1" parent="1">
          <mxGeometry x="640" y="265.5" width="49" height="49" as="geometry" />
        </mxCell>
        <mxCell id="EdqDIlXVFnxRbxeXJx3r-11" style="edgeStyle=orthogonalEdgeStyle;rounded=0;orthogonalLoop=1;jettySize=auto;html=1;entryX=0;entryY=0.5;entryDx=0;entryDy=0;entryPerimeter=0;strokeWidth=2;fillColor=#e1d5e7;strokeColor=#9673a6;endArrow=none;endFill=0;" edge="1" parent="1" source="EdqDIlXVFnxRbxeXJx3r-5" target="EdqDIlXVFnxRbxeXJx3r-10">
          <mxGeometry relative="1" as="geometry" />
        </mxCell>
        <mxCell id="EdqDIlXVFnxRbxeXJx3r-12" value="service&lt;div&gt;association&lt;/div&gt;" style="edgeLabel;html=1;align=center;verticalAlign=middle;resizable=0;points=[];" vertex="1" connectable="0" parent="EdqDIlXVFnxRbxeXJx3r-11">
          <mxGeometry x="-0.1765" y="-1" relative="1" as="geometry">
            <mxPoint x="10" y="-1" as="offset" />
          </mxGeometry>
        </mxCell>
        <mxCell id="EdqDIlXVFnxRbxeXJx3r-13" value="&lt;font color=&quot;#330000&quot;&gt;Provider VPC&lt;/font&gt;" style="points=[[0,0],[0.25,0],[0.5,0],[0.75,0],[1,0],[1,0.25],[1,0.5],[1,0.75],[1,1],[0.75,1],[0.5,1],[0.25,1],[0,1],[0,0.75],[0,0.5],[0,0.25]];outlineConnect=0;gradientColor=none;html=1;whiteSpace=wrap;fontSize=12;fontStyle=0;container=1;pointerEvents=0;collapsible=0;recursiveResize=0;shape=mxgraph.aws4.group;grIcon=mxgraph.aws4.group_vpc2;strokeColor=#8C4FFF;fillColor=none;verticalAlign=top;align=left;spacingLeft=30;fontColor=#AAB7B8;dashed=0;" vertex="1" parent="1">
          <mxGeometry x="780" y="150" width="180" height="164.5" as="geometry" />
        </mxCell>
        <mxCell id="EdqDIlXVFnxRbxeXJx3r-14" value="Auto Scaling group" style="points=[[0,0],[0.25,0],[0.5,0],[0.75,0],[1,0],[1,0.25],[1,0.5],[1,0.75],[1,1],[0.75,1],[0.5,1],[0.25,1],[0,1],[0,0.75],[0,0.5],[0,0.25]];outlineConnect=0;gradientColor=none;html=1;whiteSpace=wrap;fontSize=12;fontStyle=0;container=1;pointerEvents=0;collapsible=0;recursiveResize=0;shape=mxgraph.aws4.groupCenter;grIcon=mxgraph.aws4.group_auto_scaling_group;grStroke=1;strokeColor=#D86613;fillColor=none;verticalAlign=top;align=center;fontColor=#D86613;dashed=1;spacingTop=25;" vertex="1" parent="EdqDIlXVFnxRbxeXJx3r-13">
          <mxGeometry x="25" y="34.5" width="130" height="115.5" as="geometry" />
        </mxCell>
        <mxCell id="EdqDIlXVFnxRbxeXJx3r-15" value="" style="sketch=0;points=[[0,0,0],[0.25,0,0],[0.5,0,0],[0.75,0,0],[1,0,0],[0,1,0],[0.25,1,0],[0.5,1,0],[0.75,1,0],[1,1,0],[0,0.25,0],[0,0.5,0],[0,0.75,0],[1,0.25,0],[1,0.5,0],[1,0.75,0]];outlineConnect=0;fontColor=#232F3E;fillColor=#ED7100;strokeColor=#ffffff;dashed=0;verticalLabelPosition=bottom;verticalAlign=top;align=center;html=1;fontSize=12;fontStyle=0;aspect=fixed;shape=mxgraph.aws4.resourceIcon;resIcon=mxgraph.aws4.ec2;" vertex="1" parent="EdqDIlXVFnxRbxeXJx3r-14">
          <mxGeometry x="45" y="65.5" width="40" height="40" as="geometry" />
        </mxCell>
        <mxCell id="EdqDIlXVFnxRbxeXJx3r-16" value="AWS Lambda&lt;div&gt;function&lt;/div&gt;" style="sketch=0;points=[[0,0,0],[0.25,0,0],[0.5,0,0],[0.75,0,0],[1,0,0],[0,1,0],[0.25,1,0],[0.5,1,0],[0.75,1,0],[1,1,0],[0,0.25,0],[0,0.5,0],[0,0.75,0],[1,0.25,0],[1,0.5,0],[1,0.75,0]];outlineConnect=0;fontColor=#232F3E;fillColor=#ED7100;strokeColor=#ffffff;dashed=0;verticalLabelPosition=bottom;verticalAlign=top;align=center;html=1;fontSize=12;fontStyle=0;aspect=fixed;shape=mxgraph.aws4.resourceIcon;resIcon=mxgraph.aws4.lambda;" vertex="1" parent="1">
          <mxGeometry x="845" y="360" width="50" height="50" as="geometry" />
        </mxCell>
        <mxCell id="EdqDIlXVFnxRbxeXJx3r-17" style="edgeStyle=orthogonalEdgeStyle;rounded=0;orthogonalLoop=1;jettySize=auto;html=1;exitX=1;exitY=0.75;exitDx=0;exitDy=0;exitPerimeter=0;entryX=0;entryY=0.5;entryDx=0;entryDy=0;entryPerimeter=0;endArrow=none;endFill=0;" edge="1" parent="1" source="EdqDIlXVFnxRbxeXJx3r-10" target="EdqDIlXVFnxRbxeXJx3r-16">
          <mxGeometry relative="1" as="geometry">
            <Array as="points">
              <mxPoint x="750" y="302" />
              <mxPoint x="750" y="385" />
            </Array>
          </mxGeometry>
        </mxCell>
        <mxCell id="EdqDIlXVFnxRbxeXJx3r-18" value="/lambda" style="edgeLabel;html=1;align=center;verticalAlign=middle;resizable=0;points=[];" vertex="1" connectable="0" parent="EdqDIlXVFnxRbxeXJx3r-17">
          <mxGeometry x="-0.0557" y="1" relative="1" as="geometry">
            <mxPoint as="offset" />
          </mxGeometry>
        </mxCell>
        <mxCell id="EdqDIlXVFnxRbxeXJx3r-20" style="edgeStyle=orthogonalEdgeStyle;rounded=0;orthogonalLoop=1;jettySize=auto;html=1;exitX=1;exitY=0.75;exitDx=0;exitDy=0;exitPerimeter=0;entryX=0;entryY=0.888;entryDx=0;entryDy=0;entryPerimeter=0;strokeWidth=2;fillColor=#dae8fc;strokeColor=#6c8ebf;" edge="1" parent="1" source="EdqDIlXVFnxRbxeXJx3r-5" target="EdqDIlXVFnxRbxeXJx3r-10">
          <mxGeometry relative="1" as="geometry" />
        </mxCell>
        <mxCell id="EdqDIlXVFnxRbxeXJx3r-22" style="edgeStyle=orthogonalEdgeStyle;rounded=0;orthogonalLoop=1;jettySize=auto;html=1;fillColor=#f8cecc;strokeColor=#b85450;strokeWidth=2;" edge="1" parent="1">
          <mxGeometry relative="1" as="geometry">
            <mxPoint x="480" y="564.5" as="sourcePoint" />
            <mxPoint x="560" y="564.5" as="targetPoint" />
          </mxGeometry>
        </mxCell>
        <mxCell id="EdqDIlXVFnxRbxeXJx3r-23" style="edgeStyle=orthogonalEdgeStyle;rounded=0;orthogonalLoop=1;jettySize=auto;html=1;fillColor=#dae8fc;strokeColor=#6c8ebf;strokeWidth=2;" edge="1" parent="1">
          <mxGeometry relative="1" as="geometry">
            <mxPoint x="480" y="594.5" as="sourcePoint" />
            <mxPoint x="560" y="594.5" as="targetPoint" />
            <Array as="points">
              <mxPoint x="520" y="594.5" />
              <mxPoint x="520" y="594.5" />
            </Array>
          </mxGeometry>
        </mxCell>
        <mxCell id="EdqDIlXVFnxRbxeXJx3r-24" value="DNS request" style="text;html=1;align=center;verticalAlign=middle;whiteSpace=wrap;rounded=0;" vertex="1" parent="1">
          <mxGeometry x="560" y="550" width="90" height="30" as="geometry" />
        </mxCell>
        <mxCell id="EdqDIlXVFnxRbxeXJx3r-25" value="HTTP/HTTPS request" style="text;html=1;align=center;verticalAlign=middle;whiteSpace=wrap;rounded=0;" vertex="1" parent="1">
          <mxGeometry x="560" y="580" width="140" height="30" as="geometry" />
        </mxCell>
        <mxCell id="JMo-ZxGT1zMDHPCqKUFZ-1" value="&lt;font color=&quot;#330000&quot;&gt;Consumer&amp;nbsp;&lt;/font&gt;&lt;div&gt;&lt;font color=&quot;#330000&quot;&gt;VPC&lt;/font&gt;&lt;/div&gt;" style="points=[[0,0],[0.25,0],[0.5,0],[0.75,0],[1,0],[1,0.25],[1,0.5],[1,0.75],[1,1],[0.75,1],[0.5,1],[0.25,1],[0,1],[0,0.75],[0,0.5],[0,0.25]];outlineConnect=0;gradientColor=none;html=1;whiteSpace=wrap;fontSize=12;fontStyle=0;container=1;pointerEvents=0;collapsible=0;recursiveResize=0;shape=mxgraph.aws4.group;grIcon=mxgraph.aws4.group_vpc2;strokeColor=#8C4FFF;fillColor=none;verticalAlign=top;align=left;spacingLeft=30;fontColor=#AAB7B8;dashed=0;" vertex="1" parent="1">
          <mxGeometry x="180" y="520" width="180" height="160" as="geometry" />
        </mxCell>
        <mxCell id="JMo-ZxGT1zMDHPCqKUFZ-2" value="Resolver" style="sketch=0;outlineConnect=0;fontColor=#232F3E;gradientColor=none;fillColor=#8C4FFF;strokeColor=none;dashed=0;verticalLabelPosition=bottom;verticalAlign=top;align=center;html=1;fontSize=12;fontStyle=0;aspect=fixed;pointerEvents=1;shape=mxgraph.aws4.route_53_resolver;" vertex="1" parent="JMo-ZxGT1zMDHPCqKUFZ-1">
          <mxGeometry x="130" y="10" width="40" height="40" as="geometry" />
        </mxCell>
        <mxCell id="JMo-ZxGT1zMDHPCqKUFZ-3" style="edgeStyle=orthogonalEdgeStyle;rounded=0;orthogonalLoop=1;jettySize=auto;html=1;exitX=0.5;exitY=0;exitDx=0;exitDy=0;exitPerimeter=0;fillColor=#f8cecc;strokeColor=#b85450;strokeWidth=2;" edge="1" parent="JMo-ZxGT1zMDHPCqKUFZ-1" source="JMo-ZxGT1zMDHPCqKUFZ-4" target="JMo-ZxGT1zMDHPCqKUFZ-2">
          <mxGeometry relative="1" as="geometry" />
        </mxCell>
        <mxCell id="JMo-ZxGT1zMDHPCqKUFZ-4" value="Consumer&lt;div&gt;application&lt;/div&gt;" style="sketch=0;points=[[0,0,0],[0.25,0,0],[0.5,0,0],[0.75,0,0],[1,0,0],[0,1,0],[0.25,1,0],[0.5,1,0],[0.75,1,0],[1,1,0],[0,0.25,0],[0,0.5,0],[0,0.75,0],[1,0.25,0],[1,0.5,0],[1,0.75,0]];outlineConnect=0;fontColor=#232F3E;fillColor=#ED7100;strokeColor=#ffffff;dashed=0;verticalLabelPosition=bottom;verticalAlign=top;align=center;html=1;fontSize=12;fontStyle=0;aspect=fixed;shape=mxgraph.aws4.resourceIcon;resIcon=mxgraph.aws4.ec2;" vertex="1" parent="JMo-ZxGT1zMDHPCqKUFZ-1">
          <mxGeometry x="30" y="50" width="60" height="60" as="geometry" />
        </mxCell>
        <mxCell id="JMo-ZxGT1zMDHPCqKUFZ-7" value="Region A" style="points=[[0,0],[0.25,0],[0.5,0],[0.75,0],[1,0],[1,0.25],[1,0.5],[1,0.75],[1,1],[0.75,1],[0.5,1],[0.25,1],[0,1],[0,0.75],[0,0.5],[0,0.25]];outlineConnect=0;gradientColor=none;html=1;whiteSpace=wrap;fontSize=12;fontStyle=0;container=1;pointerEvents=0;collapsible=0;recursiveResize=0;shape=mxgraph.aws4.group;grIcon=mxgraph.aws4.group_region;strokeColor=#00A4A6;fillColor=none;verticalAlign=top;align=left;spacingLeft=30;fontColor=#147EBA;dashed=1;" vertex="1" parent="1">
          <mxGeometry x="110" y="135.5" width="880" height="324.5" as="geometry" />
        </mxCell>
        <mxCell id="EgzD-ScEv36Zcwuoj7rN-1" style="edgeStyle=orthogonalEdgeStyle;rounded=0;orthogonalLoop=1;jettySize=auto;html=1;entryX=0.5;entryY=0;entryDx=0;entryDy=0;entryPerimeter=0;fillColor=#dae8fc;strokeColor=#6c8ebf;strokeWidth=2;" edge="1" parent="JMo-ZxGT1zMDHPCqKUFZ-7">
          <mxGeometry relative="1" as="geometry">
            <mxPoint x="579" y="174.5" as="sourcePoint" />
            <mxPoint x="760" y="224.5" as="targetPoint" />
            <Array as="points">
              <mxPoint x="760" y="174.5" />
            </Array>
          </mxGeometry>
        </mxCell>
        <mxCell id="JMo-ZxGT1zMDHPCqKUFZ-8" value="Region B" style="points=[[0,0],[0.25,0],[0.5,0],[0.75,0],[1,0],[1,0.25],[1,0.5],[1,0.75],[1,1],[0.75,1],[0.5,1],[0.25,1],[0,1],[0,0.75],[0,0.5],[0,0.25]];outlineConnect=0;gradientColor=none;html=1;whiteSpace=wrap;fontSize=12;fontStyle=0;container=1;pointerEvents=0;collapsible=0;recursiveResize=0;shape=mxgraph.aws4.group;grIcon=mxgraph.aws4.group_region;strokeColor=#00A4A6;fillColor=none;verticalAlign=top;align=left;spacingLeft=30;fontColor=#147EBA;dashed=1;" vertex="1" parent="1">
          <mxGeometry x="110" y="470" width="280" height="230" as="geometry" />
        </mxCell>
        <mxCell id="JMo-ZxGT1zMDHPCqKUFZ-9" style="edgeStyle=orthogonalEdgeStyle;rounded=0;orthogonalLoop=1;jettySize=auto;html=1;strokeWidth=2;fillColor=#dae8fc;strokeColor=#6c8ebf;" edge="1" parent="1" source="JMo-ZxGT1zMDHPCqKUFZ-4" target="EdqDIlXVFnxRbxeXJx3r-26">
          <mxGeometry relative="1" as="geometry">
            <Array as="points">
              <mxPoint x="140" y="600" />
              <mxPoint x="140" y="290" />
            </Array>
          </mxGeometry>
        </mxCell>
      </root>
    </mxGraphModel>
  </diagram>
  <diagram id="d1yFYszHg0IR-bh5g4xS" name="vpclattice-vpcendpoint-hybrid">
    <mxGraphModel dx="1434" dy="854" grid="1" gridSize="10" guides="1" tooltips="1" connect="1" arrows="1" fold="1" page="1" pageScale="1" pageWidth="1169" pageHeight="827" math="0" shadow="0">
      <root>
        <mxCell id="0" />
        <mxCell id="1" parent="0" />
        <mxCell id="NBS6CEDdQ7XliA7eKXe2-37" style="edgeStyle=orthogonalEdgeStyle;rounded=0;orthogonalLoop=1;jettySize=auto;html=1;exitX=0.5;exitY=1;exitDx=0;exitDy=0;strokeWidth=2;endArrow=none;endFill=0;" edge="1" parent="1" source="NBS6CEDdQ7XliA7eKXe2-3" target="NBS6CEDdQ7XliA7eKXe2-33">
          <mxGeometry relative="1" as="geometry" />
        </mxCell>
        <mxCell id="NBS6CEDdQ7XliA7eKXe2-38" value="Site-to-Site VPN&lt;div&gt;Direct Connect&lt;/div&gt;" style="edgeLabel;html=1;align=center;verticalAlign=middle;resizable=0;points=[];" vertex="1" connectable="0" parent="NBS6CEDdQ7XliA7eKXe2-37">
          <mxGeometry x="-0.0444" y="-1" relative="1" as="geometry">
            <mxPoint as="offset" />
          </mxGeometry>
        </mxCell>
        <mxCell id="NBS6CEDdQ7XliA7eKXe2-3" value="&lt;font color=&quot;#330000&quot;&gt;Endpoint VPC&lt;/font&gt;" style="points=[[0,0],[0.25,0],[0.5,0],[0.75,0],[1,0],[1,0.25],[1,0.5],[1,0.75],[1,1],[0.75,1],[0.5,1],[0.25,1],[0,1],[0,0.75],[0,0.5],[0,0.25]];outlineConnect=0;gradientColor=none;html=1;whiteSpace=wrap;fontSize=12;fontStyle=0;container=1;pointerEvents=0;collapsible=0;recursiveResize=0;shape=mxgraph.aws4.group;grIcon=mxgraph.aws4.group_vpc2;strokeColor=#8C4FFF;fillColor=none;verticalAlign=top;align=left;spacingLeft=30;fontColor=#AAB7B8;dashed=0;" vertex="1" parent="1">
          <mxGeometry x="120" y="190" width="240" height="180" as="geometry" />
        </mxCell>
        <mxCell id="NBS6CEDdQ7XliA7eKXe2-5" value="VPC Lattice&lt;div&gt;service network&lt;/div&gt;" style="sketch=0;points=[[0,0,0],[0.25,0,0],[0.5,0,0],[0.75,0,0],[1,0,0],[0,1,0],[0.25,1,0],[0.5,1,0],[0.75,1,0],[1,1,0],[0,0.25,0],[0,0.5,0],[0,0.75,0],[1,0.25,0],[1,0.5,0],[1,0.75,0]];outlineConnect=0;fontColor=#232F3E;fillColor=#8C4FFF;strokeColor=#ffffff;dashed=0;verticalLabelPosition=bottom;verticalAlign=top;align=center;html=1;fontSize=12;fontStyle=0;aspect=fixed;shape=mxgraph.aws4.resourceIcon;resIcon=mxgraph.aws4.vpc_lattice;" vertex="1" parent="1">
          <mxGeometry x="460" y="251" width="78" height="78" as="geometry" />
        </mxCell>
        <mxCell id="NBS6CEDdQ7XliA7eKXe2-6" style="edgeStyle=orthogonalEdgeStyle;rounded=0;orthogonalLoop=1;jettySize=auto;html=1;entryX=0;entryY=0.5;entryDx=0;entryDy=0;entryPerimeter=0;endArrow=none;endFill=0;strokeWidth=2;fillColor=#e1d5e7;strokeColor=#9673a6;" edge="1" parent="1" source="NBS6CEDdQ7XliA7eKXe2-4" target="NBS6CEDdQ7XliA7eKXe2-5">
          <mxGeometry relative="1" as="geometry" />
        </mxCell>
        <mxCell id="NBS6CEDdQ7XliA7eKXe2-7" style="edgeStyle=orthogonalEdgeStyle;rounded=0;orthogonalLoop=1;jettySize=auto;html=1;exitX=1;exitY=0.25;exitDx=0;exitDy=0;exitPerimeter=0;entryX=0;entryY=0.5;entryDx=0;entryDy=0;endArrow=none;endFill=0;" edge="1" parent="1" source="NBS6CEDdQ7XliA7eKXe2-9" target="NBS6CEDdQ7XliA7eKXe2-13">
          <mxGeometry relative="1" as="geometry" />
        </mxCell>
        <mxCell id="NBS6CEDdQ7XliA7eKXe2-8" value="/asg" style="edgeLabel;html=1;align=center;verticalAlign=middle;resizable=0;points=[];" vertex="1" connectable="0" parent="NBS6CEDdQ7XliA7eKXe2-7">
          <mxGeometry x="0.0271" y="1" relative="1" as="geometry">
            <mxPoint as="offset" />
          </mxGeometry>
        </mxCell>
        <mxCell id="NBS6CEDdQ7XliA7eKXe2-9" value="VPC lattice&lt;div&gt;service&lt;/div&gt;" style="sketch=0;points=[[0,0,0],[0.25,0,0],[0.5,0,0],[0.75,0,0],[1,0,0],[0,1,0],[0.25,1,0],[0.5,1,0],[0.75,1,0],[1,1,0],[0,0.25,0],[0,0.5,0],[0,0.75,0],[1,0.25,0],[1,0.5,0],[1,0.75,0]];outlineConnect=0;fontColor=#232F3E;fillColor=#8C4FFF;strokeColor=#ffffff;dashed=0;verticalLabelPosition=bottom;verticalAlign=top;align=center;html=1;fontSize=12;fontStyle=0;aspect=fixed;shape=mxgraph.aws4.resourceIcon;resIcon=mxgraph.aws4.vpc_lattice;" vertex="1" parent="1">
          <mxGeometry x="640" y="265.5" width="49" height="49" as="geometry" />
        </mxCell>
        <mxCell id="NBS6CEDdQ7XliA7eKXe2-10" style="edgeStyle=orthogonalEdgeStyle;rounded=0;orthogonalLoop=1;jettySize=auto;html=1;entryX=0;entryY=0.5;entryDx=0;entryDy=0;entryPerimeter=0;strokeWidth=2;fillColor=#e1d5e7;strokeColor=#9673a6;endArrow=none;endFill=0;" edge="1" parent="1" source="NBS6CEDdQ7XliA7eKXe2-5" target="NBS6CEDdQ7XliA7eKXe2-9">
          <mxGeometry relative="1" as="geometry" />
        </mxCell>
        <mxCell id="NBS6CEDdQ7XliA7eKXe2-11" value="service&lt;div&gt;association&lt;/div&gt;" style="edgeLabel;html=1;align=center;verticalAlign=middle;resizable=0;points=[];" vertex="1" connectable="0" parent="NBS6CEDdQ7XliA7eKXe2-10">
          <mxGeometry x="-0.1765" y="-1" relative="1" as="geometry">
            <mxPoint x="10" y="-1" as="offset" />
          </mxGeometry>
        </mxCell>
        <mxCell id="NBS6CEDdQ7XliA7eKXe2-12" value="&lt;font color=&quot;#330000&quot;&gt;Provider VPC&lt;/font&gt;" style="points=[[0,0],[0.25,0],[0.5,0],[0.75,0],[1,0],[1,0.25],[1,0.5],[1,0.75],[1,1],[0.75,1],[0.5,1],[0.25,1],[0,1],[0,0.75],[0,0.5],[0,0.25]];outlineConnect=0;gradientColor=none;html=1;whiteSpace=wrap;fontSize=12;fontStyle=0;container=1;pointerEvents=0;collapsible=0;recursiveResize=0;shape=mxgraph.aws4.group;grIcon=mxgraph.aws4.group_vpc2;strokeColor=#8C4FFF;fillColor=none;verticalAlign=top;align=left;spacingLeft=30;fontColor=#AAB7B8;dashed=0;" vertex="1" parent="1">
          <mxGeometry x="780" y="150" width="180" height="164.5" as="geometry" />
        </mxCell>
        <mxCell id="NBS6CEDdQ7XliA7eKXe2-13" value="Auto Scaling group" style="points=[[0,0],[0.25,0],[0.5,0],[0.75,0],[1,0],[1,0.25],[1,0.5],[1,0.75],[1,1],[0.75,1],[0.5,1],[0.25,1],[0,1],[0,0.75],[0,0.5],[0,0.25]];outlineConnect=0;gradientColor=none;html=1;whiteSpace=wrap;fontSize=12;fontStyle=0;container=1;pointerEvents=0;collapsible=0;recursiveResize=0;shape=mxgraph.aws4.groupCenter;grIcon=mxgraph.aws4.group_auto_scaling_group;grStroke=1;strokeColor=#D86613;fillColor=none;verticalAlign=top;align=center;fontColor=#D86613;dashed=1;spacingTop=25;" vertex="1" parent="NBS6CEDdQ7XliA7eKXe2-12">
          <mxGeometry x="25" y="34.5" width="130" height="115.5" as="geometry" />
        </mxCell>
        <mxCell id="NBS6CEDdQ7XliA7eKXe2-14" value="" style="sketch=0;points=[[0,0,0],[0.25,0,0],[0.5,0,0],[0.75,0,0],[1,0,0],[0,1,0],[0.25,1,0],[0.5,1,0],[0.75,1,0],[1,1,0],[0,0.25,0],[0,0.5,0],[0,0.75,0],[1,0.25,0],[1,0.5,0],[1,0.75,0]];outlineConnect=0;fontColor=#232F3E;fillColor=#ED7100;strokeColor=#ffffff;dashed=0;verticalLabelPosition=bottom;verticalAlign=top;align=center;html=1;fontSize=12;fontStyle=0;aspect=fixed;shape=mxgraph.aws4.resourceIcon;resIcon=mxgraph.aws4.ec2;" vertex="1" parent="NBS6CEDdQ7XliA7eKXe2-13">
          <mxGeometry x="45" y="65.5" width="40" height="40" as="geometry" />
        </mxCell>
        <mxCell id="NBS6CEDdQ7XliA7eKXe2-15" value="AWS Lambda&lt;div&gt;function&lt;/div&gt;" style="sketch=0;points=[[0,0,0],[0.25,0,0],[0.5,0,0],[0.75,0,0],[1,0,0],[0,1,0],[0.25,1,0],[0.5,1,0],[0.75,1,0],[1,1,0],[0,0.25,0],[0,0.5,0],[0,0.75,0],[1,0.25,0],[1,0.5,0],[1,0.75,0]];outlineConnect=0;fontColor=#232F3E;fillColor=#ED7100;strokeColor=#ffffff;dashed=0;verticalLabelPosition=bottom;verticalAlign=top;align=center;html=1;fontSize=12;fontStyle=0;aspect=fixed;shape=mxgraph.aws4.resourceIcon;resIcon=mxgraph.aws4.lambda;" vertex="1" parent="1">
          <mxGeometry x="845" y="360" width="50" height="50" as="geometry" />
        </mxCell>
        <mxCell id="NBS6CEDdQ7XliA7eKXe2-16" style="edgeStyle=orthogonalEdgeStyle;rounded=0;orthogonalLoop=1;jettySize=auto;html=1;exitX=1;exitY=0.75;exitDx=0;exitDy=0;exitPerimeter=0;entryX=0;entryY=0.5;entryDx=0;entryDy=0;entryPerimeter=0;endArrow=none;endFill=0;" edge="1" parent="1" source="NBS6CEDdQ7XliA7eKXe2-9" target="NBS6CEDdQ7XliA7eKXe2-15">
          <mxGeometry relative="1" as="geometry">
            <Array as="points">
              <mxPoint x="750" y="302" />
              <mxPoint x="750" y="385" />
            </Array>
          </mxGeometry>
        </mxCell>
        <mxCell id="NBS6CEDdQ7XliA7eKXe2-17" value="/lambda" style="edgeLabel;html=1;align=center;verticalAlign=middle;resizable=0;points=[];" vertex="1" connectable="0" parent="NBS6CEDdQ7XliA7eKXe2-16">
          <mxGeometry x="-0.0557" y="1" relative="1" as="geometry">
            <mxPoint as="offset" />
          </mxGeometry>
        </mxCell>
        <mxCell id="NBS6CEDdQ7XliA7eKXe2-18" style="edgeStyle=orthogonalEdgeStyle;rounded=0;orthogonalLoop=1;jettySize=auto;html=1;exitX=1;exitY=0.75;exitDx=0;exitDy=0;exitPerimeter=0;entryX=0;entryY=0.888;entryDx=0;entryDy=0;entryPerimeter=0;strokeWidth=2;fillColor=#dae8fc;strokeColor=#6c8ebf;" edge="1" parent="1" source="NBS6CEDdQ7XliA7eKXe2-5" target="NBS6CEDdQ7XliA7eKXe2-9">
          <mxGeometry relative="1" as="geometry" />
        </mxCell>
        <mxCell id="NBS6CEDdQ7XliA7eKXe2-19" style="edgeStyle=orthogonalEdgeStyle;rounded=0;orthogonalLoop=1;jettySize=auto;html=1;fillColor=#f8cecc;strokeColor=#b85450;strokeWidth=2;" edge="1" parent="1">
          <mxGeometry relative="1" as="geometry">
            <mxPoint x="410" y="564.5" as="sourcePoint" />
            <mxPoint x="490" y="564.5" as="targetPoint" />
          </mxGeometry>
        </mxCell>
        <mxCell id="NBS6CEDdQ7XliA7eKXe2-20" style="edgeStyle=orthogonalEdgeStyle;rounded=0;orthogonalLoop=1;jettySize=auto;html=1;fillColor=#dae8fc;strokeColor=#6c8ebf;strokeWidth=2;" edge="1" parent="1">
          <mxGeometry relative="1" as="geometry">
            <mxPoint x="410" y="594.5" as="sourcePoint" />
            <mxPoint x="490" y="594.5" as="targetPoint" />
            <Array as="points">
              <mxPoint x="450" y="594.5" />
              <mxPoint x="450" y="594.5" />
            </Array>
          </mxGeometry>
        </mxCell>
        <mxCell id="NBS6CEDdQ7XliA7eKXe2-21" value="DNS request" style="text;html=1;align=center;verticalAlign=middle;whiteSpace=wrap;rounded=0;" vertex="1" parent="1">
          <mxGeometry x="490" y="550" width="90" height="30" as="geometry" />
        </mxCell>
        <mxCell id="NBS6CEDdQ7XliA7eKXe2-22" value="HTTP/HTTPS request" style="text;html=1;align=center;verticalAlign=middle;whiteSpace=wrap;rounded=0;" vertex="1" parent="1">
          <mxGeometry x="490" y="580" width="140" height="30" as="geometry" />
        </mxCell>
        <mxCell id="NBS6CEDdQ7XliA7eKXe2-31" value="AWS Cloud" style="points=[[0,0],[0.25,0],[0.5,0],[0.75,0],[1,0],[1,0.25],[1,0.5],[1,0.75],[1,1],[0.75,1],[0.5,1],[0.25,1],[0,1],[0,0.75],[0,0.5],[0,0.25]];outlineConnect=0;gradientColor=none;html=1;whiteSpace=wrap;fontSize=12;fontStyle=0;container=1;pointerEvents=0;collapsible=0;recursiveResize=0;shape=mxgraph.aws4.group;grIcon=mxgraph.aws4.group_aws_cloud_alt;strokeColor=#232F3E;fillColor=none;verticalAlign=top;align=left;spacingLeft=30;fontColor=#232F3E;dashed=0;" vertex="1" parent="1">
          <mxGeometry x="90" y="130" width="890" height="370" as="geometry" />
        </mxCell>
        <mxCell id="NBS6CEDdQ7XliA7eKXe2-4" value="endpoint&lt;div&gt;(service network)&lt;/div&gt;" style="sketch=0;outlineConnect=0;fontColor=#232F3E;gradientColor=none;fillColor=#8C4FFF;strokeColor=none;dashed=0;verticalLabelPosition=bottom;verticalAlign=top;align=center;html=1;fontSize=12;fontStyle=0;aspect=fixed;pointerEvents=1;shape=mxgraph.aws4.elastic_network_interface;" vertex="1" parent="NBS6CEDdQ7XliA7eKXe2-31">
          <mxGeometry x="190" y="135.5" width="49" height="49" as="geometry" />
        </mxCell>
        <mxCell id="NBS6CEDdQ7XliA7eKXe2-32" value="Route 53&lt;div&gt;inbound endpoint&lt;/div&gt;" style="sketch=0;outlineConnect=0;fontColor=#232F3E;gradientColor=none;fillColor=#8C4FFF;strokeColor=none;dashed=0;verticalLabelPosition=bottom;verticalAlign=top;align=center;html=1;fontSize=12;fontStyle=0;aspect=fixed;pointerEvents=1;shape=mxgraph.aws4.elastic_network_interface;" vertex="1" parent="NBS6CEDdQ7XliA7eKXe2-31">
          <mxGeometry x="70" y="135.5" width="49" height="49" as="geometry" />
        </mxCell>
        <mxCell id="rNQ6wFWj7i3rL2tWAVFN-1" value="Resolver" style="sketch=0;outlineConnect=0;fontColor=#232F3E;gradientColor=none;fillColor=#8C4FFF;strokeColor=none;dashed=0;verticalLabelPosition=bottom;verticalAlign=top;align=center;html=1;fontSize=12;fontStyle=0;aspect=fixed;pointerEvents=1;shape=mxgraph.aws4.route_53_resolver;" vertex="1" parent="NBS6CEDdQ7XliA7eKXe2-31">
          <mxGeometry x="220" y="70" width="40" height="40" as="geometry" />
        </mxCell>
        <mxCell id="rNQ6wFWj7i3rL2tWAVFN-2" style="edgeStyle=orthogonalEdgeStyle;rounded=0;orthogonalLoop=1;jettySize=auto;html=1;fillColor=#f8cecc;strokeColor=#b85450;strokeWidth=2;" edge="1" parent="NBS6CEDdQ7XliA7eKXe2-31" source="NBS6CEDdQ7XliA7eKXe2-32" target="rNQ6wFWj7i3rL2tWAVFN-1">
          <mxGeometry relative="1" as="geometry">
            <mxPoint x="134" y="515" as="sourcePoint" />
            <mxPoint x="185" y="515" as="targetPoint" />
            <Array as="points">
              <mxPoint x="95" y="90" />
            </Array>
          </mxGeometry>
        </mxCell>
        <mxCell id="NBS6CEDdQ7XliA7eKXe2-33" value="Corporate data center" style="points=[[0,0],[0.25,0],[0.5,0],[0.75,0],[1,0],[1,0.25],[1,0.5],[1,0.75],[1,1],[0.75,1],[0.5,1],[0.25,1],[0,1],[0,0.75],[0,0.5],[0,0.25]];outlineConnect=0;gradientColor=none;html=1;whiteSpace=wrap;fontSize=12;fontStyle=0;container=1;pointerEvents=0;collapsible=0;recursiveResize=0;shape=mxgraph.aws4.group;grIcon=mxgraph.aws4.group_corporate_data_center;strokeColor=#7D8998;fillColor=none;verticalAlign=top;align=left;spacingLeft=30;fontColor=#5A6C86;dashed=0;" vertex="1" parent="1">
          <mxGeometry x="145" y="550" width="190" height="170" as="geometry" />
        </mxCell>
        <mxCell id="NBS6CEDdQ7XliA7eKXe2-41" value="" style="edgeStyle=orthogonalEdgeStyle;rounded=0;orthogonalLoop=1;jettySize=auto;html=1;" edge="1" parent="NBS6CEDdQ7XliA7eKXe2-33" source="NBS6CEDdQ7XliA7eKXe2-35" target="NBS6CEDdQ7XliA7eKXe2-36">
          <mxGeometry relative="1" as="geometry">
            <Array as="points">
              <mxPoint x="85" y="85" />
              <mxPoint x="85" y="85" />
            </Array>
          </mxGeometry>
        </mxCell>
        <mxCell id="NBS6CEDdQ7XliA7eKXe2-35" value="Server" style="sketch=0;outlineConnect=0;fontColor=#232F3E;gradientColor=none;fillColor=#232F3D;strokeColor=none;dashed=0;verticalLabelPosition=bottom;verticalAlign=top;align=center;html=1;fontSize=12;fontStyle=0;aspect=fixed;pointerEvents=1;shape=mxgraph.aws4.traditional_server;" vertex="1" parent="NBS6CEDdQ7XliA7eKXe2-33">
          <mxGeometry x="32.079999999999984" y="53" width="36.92" height="64" as="geometry" />
        </mxCell>
        <mxCell id="NBS6CEDdQ7XliA7eKXe2-36" value="DNS&lt;div&gt;server&lt;/div&gt;" style="sketch=0;outlineConnect=0;fontColor=#232F3E;gradientColor=none;fillColor=#232F3D;strokeColor=none;dashed=0;verticalLabelPosition=bottom;verticalAlign=top;align=center;html=1;fontSize=12;fontStyle=0;aspect=fixed;pointerEvents=1;shape=mxgraph.aws4.traditional_server;" vertex="1" parent="NBS6CEDdQ7XliA7eKXe2-33">
          <mxGeometry x="120" y="53" width="36.92" height="64" as="geometry" />
        </mxCell>
        <mxCell id="NBS6CEDdQ7XliA7eKXe2-39" style="edgeStyle=orthogonalEdgeStyle;rounded=0;orthogonalLoop=1;jettySize=auto;html=1;fillColor=#f8cecc;strokeColor=#b85450;strokeWidth=2;" edge="1" parent="NBS6CEDdQ7XliA7eKXe2-33" source="NBS6CEDdQ7XliA7eKXe2-35" target="NBS6CEDdQ7XliA7eKXe2-36">
          <mxGeometry relative="1" as="geometry">
            <mxPoint x="215" y="109" as="sourcePoint" />
            <mxPoint x="295" y="109" as="targetPoint" />
          </mxGeometry>
        </mxCell>
        <mxCell id="NBS6CEDdQ7XliA7eKXe2-40" style="edgeStyle=orthogonalEdgeStyle;rounded=0;orthogonalLoop=1;jettySize=auto;html=1;fillColor=#f8cecc;strokeColor=#b85450;strokeWidth=2;" edge="1" parent="1" source="NBS6CEDdQ7XliA7eKXe2-36">
          <mxGeometry relative="1" as="geometry">
            <mxPoint x="224" y="645" as="sourcePoint" />
            <mxPoint x="185" y="350" as="targetPoint" />
            <Array as="points">
              <mxPoint x="284" y="520" />
              <mxPoint x="185" y="520" />
            </Array>
          </mxGeometry>
        </mxCell>
        <mxCell id="rNQ6wFWj7i3rL2tWAVFN-5" style="edgeStyle=orthogonalEdgeStyle;rounded=0;orthogonalLoop=1;jettySize=auto;html=1;fillColor=#dae8fc;strokeColor=#6c8ebf;strokeWidth=2;" edge="1" parent="1" source="NBS6CEDdQ7XliA7eKXe2-35">
          <mxGeometry relative="1" as="geometry">
            <mxPoint x="320" y="580" as="sourcePoint" />
            <mxPoint x="305" y="350" as="targetPoint" />
            <Array as="points">
              <mxPoint x="196" y="490" />
              <mxPoint x="305" y="490" />
            </Array>
          </mxGeometry>
        </mxCell>
      </root>
    </mxGraphModel>
  </diagram>
</mxfile>
